{"title":"The Baxter (PSP + Ipod touch + Zune)","uid":5647010,"size":363086412,"categoryP":"video","categoryS":"handheld","magnet":"?xt=urn:btih:dab8e7c13b1cbb7a2bb819c4dbc128407a89e385&amp;dn=The+Baxter+%28PSP+%2B+Ipod+touch+%2B+Zune%29&amp;tr=udp%3A%2F%2Ftracker.openbittorrent.com%3A80&amp;tr=udp%3A%2F%2Fopen.demonii.com%3A1337&amp;tr=udp%3A%2F%2Ftracker.coppersurfer.tk%3A6969&amp;tr=udp%3A%2F%2Fexodus.desync.com%3A6969","seeders":0,"leechers":1,"uploader":"on.off.on","files":-1,"time":1277323013,"description":"The Baxter &lt;a href=&quot;\nhttp://www.imdb.com/title/tt0401244/&quot; rel=&quot;nofollow&quot; target=&quot;_NEW&quot;&gt;\nhttp://www.imdb.com/title/tt0401244/&lt;/a&gt;\n\nSource  : &lt;a href=&quot;\nhttp://thepiratebay.se/torrent/4982325/The_Baxter_(2005)_DVDRip&quot; rel=&quot;nofollow&quot; target=&quot;_NEW&quot;&gt;\nhttp://thepiratebay.se/torrent/4982325/The_Baxter_(2005)_DVDRip&lt;/a&gt;\n\nInfo    :\n\nID                               : 1\nFormat                           : AVC\nFormat/Info                      : Advanced Video Codec\nFormat profile                   : &lt;a class=&quot;__cf_email__&quot; href=&quot;/cdn-cgi/l/email-protection&quot; data-cfemail=&quot;b2f0d3c1d7dedbdcd7f2fe809c83&quot;&gt;[email&amp;#160;protected]&lt;/a&gt;&lt;script cf-hash='f9e31' type=&quot;text/javascript&quot;&gt;\n/* &lt;![CDATA[ */!function(){try{var t=&quot;currentScript&quot;in document?document.currentScript:function(){for(var t=document.getElementsByTagName(&quot;script&quot;),e=t.length;e--;)if(t[e].getAttribute(&quot;cf-hash&quot;))return t[e]}();if(t&amp;&amp;t.previousSibling){var e,r,n,i,c=t.previousSibling,a=c.getAttribute(&quot;data-cfemail&quot;);if(a){for(e=&quot;&quot;,r=parseInt(a.substr(0,2),16),n=2;a.length-n;n+=2)i=parseInt(a.substr(n,2),16)^r,e+=String.fromCharCode(i);e=document.createTextNode(e),c.parentNode.replaceChild(e,c)}}}catch(u){}}();/* ]]&gt; */&lt;/script&gt;\nFormat settings, CABAC           : No\nFormat settings, ReFrames        : 3 frames\nCodec ID                         : avc1\nCodec ID/Info                    : Advanced Video Coding\nDuration                         : 1h 31mn\nBit rate mode                    : Variable\nBit rate                         : 400 Kbps\nWidth                            : 480 pixels\nHeight                           : 256 pixels\nDisplay aspect ratio             : 1.875\nFrame rate mode                  : Variable\nFrame rate                       : 23.976 fps\nMinimum frame rate               : 23.974 fps\nMaximum frame rate               : 23.981 fps\nColor space                      : YUV\nChroma subsampling               : 4:2:0\nBit depth                        : 8 bits\nScan type                        : Progressive\nBits/(Pixel*Frame)               : 0.136\nStream size                      : 260 MiB (75%)\nWriting library                  : x264 core 79\n\nID                               : 2\nFormat                           : AAC\nFormat/Info                      : Advanced Audio Codec\nFormat version                   : Version 4\nFormat profile                   : LC\nFormat settings, SBR             : No\nCodec ID                         : 40\nDuration                         : 1h 31mn\nBit rate mode                    : Variable\nBit rate                         : 128 Kbps\nMaximum bit rate                 : 211 Kbps\nChannel(s)                       : 2 channels\nChannel positions                : Front: L R\nSampling rate                    : 48.0 KHz\nStream size                      : 83.3 MiB (24%)\n\nScreens :  &lt;a href=&quot;\nhttp://img28.imageshack.us/img28/6819/vlcsnap00001y.png&quot; rel=&quot;nofollow&quot; target=&quot;_NEW&quot;&gt;\nhttp://img28.imageshack.us/img28/6819/vlcsnap00001y.png&lt;/a&gt; &lt;a href=&quot;\nhttp://img189.imageshack.us/img189/4035/vlcsnap00002w.png&quot; rel=&quot;nofollow&quot; target=&quot;_NEW&quot;&gt;\nhttp://img189.imageshack.us/img189/4035/vlcsnap00002w.png&lt;/a&gt; &lt;a href=&quot;\nhttp://img532.imageshack.us/img532/849/vlcsnap00003ev.png&quot; rel=&quot;nofollow&quot; target=&quot;_NEW&quot;&gt;\nhttp://img532.imageshack.us/img532/849/vlcsnap00003ev.png&lt;/a&gt; &lt;a href=&quot;\nhttp://img143.imageshack.us/img143/5236/vlcsnap00004ek.png&quot; rel=&quot;nofollow&quot; target=&quot;_NEW&quot;&gt;\nhttp://img143.imageshack.us/img143/5236/vlcsnap00004ek.png&lt;/a&gt; &lt;a href=&quot;\nhttp://img193.imageshack.us/img193/539/vlcsnap00005ja.png&quot; rel=&quot;nofollow&quot; target=&quot;_NEW&quot;&gt;\nhttp://img193.imageshack.us/img193/539/vlcsnap00005ja.png&lt;/a&gt; &lt;a href=&quot;\nhttp://img819.imageshack.us/img819/9338/vlcsnap00006.png&quot; rel=&quot;nofollow&quot; target=&quot;_NEW&quot;&gt;\nhttp://img819.imageshack.us/img819/9338/vlcsnap00006.png&lt;/a&gt;\n\n\n\n\n\nPLEASE LET THE TORRENT SEED AND SHARE IT WITH ALL YOU KNOW!\n\nLet me know what I can do to be your trusted source of Handheld videos.\n\n-OOO","torrent":{"xt":"urn:btih:dab8e7c13b1cbb7a2bb819c4dbc128407a89e385","amp;dn":"The+Baxter+%28PSP+%2B+Ipod+touch+%2B+Zune%29","amp;tr":["udp%3A%2F%2Ftracker.openbittorrent.com%3A80","udp%3A%2F%2Fopen.demonii.com%3A1337","udp%3A%2F%2Ftracker.coppersurfer.tk%3A6969","udp%3A%2F%2Fexodus.desync.com%3A6969"],"infoHash":"dab8e7c13b1cbb7a2bb819c4dbc128407a89e385","infoHashBuffer":{"type":"Buffer","data":[218,184,231,193,59,28,187,122,43,184,25,196,219,193,40,64,122,137,227,133]},"announce":[],"urlList":[]}}